# ModelMaker 2.0 OBJ file :o)

mtllib Circle.mtl
g default
v 0 0 0 
v 0.5 0 0 
v 0.482963 0.12941 0 
v 0.433013 0.25 0 
v 0.353553 0.353553 0 
v 0.25 0.433013 0 
v 0.12941 0.482963 0 
v 0 0.5 0 
v -0.12941 0.482963 0 
v -0.25 0.433013 0 
v -0.353553 0.353553 0 
v -0.433013 0.25 0 
v -0.482963 0.12941 0 
v -0.5 0 0 
v -0.482963 -0.12941 0 
v -0.433013 -0.25 0 
v -0.353553 -0.353553 0 
v -0.25 -0.433013 0 
v -0.12941 -0.482963 0 
v 0 -0.5 0 
v 0.12941 -0.482963 0 
v 0.25 -0.433013 0 
v 0.353553 -0.353553 0 
v 0.433013 -0.25 0 
v 0.482963 -0.12941 0 
vt 0.5 0.5 
vt 1 0.5 
vt 0.982963 0.62941 
vt 0.933013 0.75 
vt 0.853553 0.853553 
vt 0.75 0.933013 
vt 0.62941 0.982963 
vt 0.5 1 
vt 0.37059 0.982963 
vt 0.25 0.933013 
vt 0.146447 0.853553 
vt 0.0669873 0.75 
vt 0.0170371 0.62941 
vt 0 0.5 
vt 0.0170371 0.37059 
vt 0.0669873 0.25 
vt 0.146447 0.146447 
vt 0.25 0.0669873 
vt 0.37059 0.0170371 
vt 0.5 0 
vt 0.62941 0.0170371 
vt 0.75 0.0669873 
vt 0.853553 0.146447 
vt 0.933013 0.25 
vt 0.982963 0.37059 
vn 0 0 1 
vn 0 0 1 
vn 0 0 1 
vn 0 0 1 
vn 0 0 1 
vn 0 0 1 
vn 0 0 1 
vn 0 0 1 
vn 0 0 1 
vn 0 0 1 
vn 0 0 1 
vn 0 0 1 
vn 0 0 1 
vn 0 0 1 
vn 0 0 1 
vn 0 0 1 
vn 0 0 1 
vn 0 0 1 
vn 0 0 1 
vn 0 0 1 
vn 0 0 1 
vn 0 0 1 
vn 0 0 1 
vn 0 0 1 
vn 0 0 1 
g Circle01
usemtl InitialMaterial
f 1/1/1 2/2/2 3/3/3
f 1/1/1 3/3/3 4/4/4
f 1/1/1 4/4/4 5/5/5
f 1/1/1 5/5/5 6/6/6
f 1/1/1 6/6/6 7/7/7
f 1/1/1 7/7/7 8/8/8
f 1/1/1 8/8/8 9/9/9
f 1/1/1 9/9/9 10/10/10
f 1/1/1 10/10/10 11/11/11
f 1/1/1 11/11/11 12/12/12
f 1/1/1 12/12/12 13/13/13
f 1/1/1 13/13/13 14/14/14
f 1/1/1 14/14/14 15/15/15
f 1/1/1 15/15/15 16/16/16
f 1/1/1 16/16/16 17/17/17
f 1/1/1 17/17/17 18/18/18
f 1/1/1 18/18/18 19/19/19
f 1/1/1 19/19/19 20/20/20
f 1/1/1 20/20/20 21/21/21
f 1/1/1 21/21/21 22/22/22
f 1/1/1 22/22/22 23/23/23
f 1/1/1 23/23/23 24/24/24
f 1/1/1 24/24/24 25/25/25
f 1/1/1 25/25/25 2/2/2


