<?xml version="1.0" encoding="UTF-8" standalone="no"?>
<svg
   width="16"
   height="16"
   fill="currentColor"
   class="bi bi-envelope-at"
   viewBox="0 0 16 16"
   version="1.1"
   id="svg22"
   sodipodi:docname="envelope-at.svg"
   inkscape:export-filename="envelope-at.png"
   inkscape:export-xdpi="96"
   inkscape:export-ydpi="96"
   inkscape:version="1.2.1 (8a69933317, 2022-10-28, custom)"
   xmlns:inkscape="http://www.inkscape.org/namespaces/inkscape"
   xmlns:sodipodi="http://sodipodi.sourceforge.net/DTD/sodipodi-0.dtd"
   xmlns="http://www.w3.org/2000/svg"
   xmlns:svg="http://www.w3.org/2000/svg">
  <defs
     id="defs26" />
  <sodipodi:namedview
     id="namedview24"
     pagecolor="#ffffff"
     bordercolor="#111111"
     borderopacity="1"
     inkscape:showpageshadow="0"
     inkscape:pageopacity="0"
     inkscape:pagecheckerboard="1"
     inkscape:deskcolor="#d1d1d1"
     showgrid="false"
     inkscape:zoom="53.125"
     inkscape:cx="3.4635294"
     inkscape:cy="8.0094118"
     inkscape:window-width="1850"
     inkscape:window-height="1016"
     inkscape:window-x="70"
     inkscape:window-y="27"
     inkscape:window-maximized="1"
     inkscape:current-layer="svg22" />
  <path
     d="M2 2a2 2 0 0 0-2 2v8.01A2 2 0 0 0 2 14h5.5a.5.5 0 0 0 0-1H2a1 1 0 0 1-.966-.741l5.64-3.471L8 9.583l7-4.2V8.5a.5.5 0 0 0 1 0V4a2 2 0 0 0-2-2H2Zm3.708 6.208L1 11.105V5.383l4.708 2.825ZM1 4.217V4a1 1 0 0 1 1-1h12a1 1 0 0 1 1 1v.217l-7 4.2-7-4.2Z"
     id="path18"
     style="fill:#ffffff" />
  <path
     d="M14.247 14.269c1.01 0 1.587-.857 1.587-2.025v-.21C15.834 10.43 14.64 9 12.52 9h-.035C10.42 9 9 10.36 9 12.432v.214C9 14.82 10.438 16 12.358 16h.044c.594 0 1.018-.074 1.237-.175v-.73c-.245.11-.673.18-1.18.18h-.044c-1.334 0-2.571-.788-2.571-2.655v-.157c0-1.657 1.058-2.724 2.64-2.724h.04c1.535 0 2.484 1.05 2.484 2.326v.118c0 .975-.324 1.39-.639 1.39-.232 0-.41-.148-.41-.42v-2.19h-.906v.569h-.03c-.084-.298-.368-.63-.954-.63-.778 0-1.259.555-1.259 1.4v.528c0 .892.49 1.434 1.26 1.434.471 0 .896-.227 1.014-.643h.043c.118.42.617.648 1.12.648Zm-2.453-1.588v-.227c0-.546.227-.791.573-.791.297 0 .572.192.572.708v.367c0 .573-.253.744-.564.744-.354 0-.581-.215-.581-.8Z"
     id="path20" />
  <path
     style="fill:#ffffff;stroke-width:0.0188235"
     d="M 12.103529,15.980033 C 11.402305,15.939984 10.793269,15.740819 10.277647,15.38294 10.058002,15.23049 9.7176049,14.881092 9.566189,14.652667 9.4198564,14.431911 9.2810971,14.144984 9.1982133,13.891765 9.0771578,13.521927 9.0294663,13.218502 9.0132985,12.715294 c -0.02435,-0.757867 0.081554,-1.33914 0.3446252,-1.89154 0.4799122,-1.0077245 1.4355673,-1.6521755 2.6514883,-1.7880442 0.25473,-0.028464 0.803841,-0.0234 1.057859,0.00976 1.440188,0.1879796 2.443418,1.0933172 2.710816,2.4463002 0.04932,0.249527 0.04828,1.032958 -0.0017,1.298823 -0.143938,0.765381 -0.548187,1.264656 -1.151575,1.422273 -0.207365,0.05417 -0.542427,0.05424 -0.751849,1.69e-4 -0.331649,-0.08563 -0.595475,-0.274196 -0.6985,-0.499231 -0.02628,-0.05741 -0.05832,-0.104387 -0.07118,-0.104387 -0.01287,0 -0.04341,0.04871 -0.06789,0.108235 -0.05983,0.145546 -0.247985,0.332765 -0.414198,0.412143 -0.24073,0.114965 -0.574227,0.150852 -0.85298,0.09179 -0.334956,-0.07097 -0.633317,-0.305531 -0.781797,-0.614615 -0.144555,-0.300914 -0.18203,-0.563865 -0.167155,-1.172868 0.0083,-0.339333 0.01741,-0.44281 0.04987,-0.565861 0.161638,-0.612761 0.586621,-0.950588 1.195828,-0.950588 0.427081,0 0.731967,0.165334 0.888339,0.481731 0.03791,0.07669 0.0761,0.139446 0.08488,0.139446 0.0088,0 0.01596,-0.127059 0.01596,-0.282353 v -0.282353 h 0.451764 0.451765 v 1.153658 1.153659 L 14,13.364332 c 0.08709,0.170455 0.273663,0.249575 0.469028,0.198898 0.225591,-0.05852 0.398891,-0.318306 0.490302,-0.734995 0.05519,-0.25157 0.0689,-0.895826 0.02468,-1.160222 -0.144243,-0.862636 -0.704798,-1.51576 -1.540786,-1.7952292 -0.26021,-0.086988 -0.477327,-0.1231132 -0.815514,-0.1356922 -1.467633,-0.054589 -2.492672,0.7426834 -2.7457409,2.1356284 -0.041415,0.22796 -0.057264,0.808959 -0.029982,1.099127 0.075586,0.803933 0.3898839,1.408611 0.9527149,1.83293 0.13984,0.105426 0.477985,0.274833 0.674539,0.337937 0.333602,0.107103 0.530151,0.132576 1.010167,0.130918 0.322527,-0.0011 0.493342,-0.01015 0.630588,-0.03335 0.171698,-0.02903 0.40146,-0.08419 0.485129,-0.116468 0.03132,-0.01208 0.03305,0.0088 0.02824,0.341413 l -0.0051,0.354284 -0.123151,0.04108 c -0.171734,0.05729 -0.439599,0.100354 -0.695212,0.111778 -0.119312,0.0053 -0.27199,0.01238 -0.339284,0.01567 -0.06729,0.0033 -0.23247,-3.16e-4 -0.367059,-0.008 z m 0.515405,-2.532352 c 0.143445,-0.05983 0.259168,-0.220496 0.301078,-0.418019 0.01164,-0.05486 0.02116,-0.267853 0.02116,-0.473312 0,-0.322052 -0.0053,-0.390596 -0.03816,-0.497104 -0.05141,-0.166444 -0.134983,-0.271378 -0.271907,-0.341403 -0.09638,-0.04929 -0.130575,-0.05663 -0.262721,-0.05639 -0.303428,5.63e-4 -0.472579,0.146774 -0.549075,0.474611 -0.02352,0.100784 -0.02815,0.206254 -0.02213,0.503931 0.0067,0.32936 0.01264,0.389145 0.04787,0.477753 0.08467,0.213003 0.199965,0.321065 0.383596,0.359539 0.104875,0.02197 0.302569,0.007 0.390289,-0.02961 z"
     id="path270" />
</svg>
