# ModelMaker 2.0 OBJ file :o)

mtllib Pryamid.mtl
g default
v 0 0 0.5 
v 0.5 0.5 -0.5 
v 0.5 -0.5 -0.5 
v -0.5 -0.5 -0.5 
v -0.5 0.5 -0.5 
vt 0 0 
vt 1 0 
vt 0 1 
vt 1 1 
vt 0.5 1 
vn 0.894427 -0 0.447214 
vn 0.894427 -0 0.447214 
vn 0.894427 -0 0.447214 
vn 0 0.894427 0.447214 
vn 0 0.894427 0.447214 
vn 0 0.894427 0.447214 
vn -0.894427 0 0.447214 
vn -0.894427 0 0.447214 
vn -0.894427 0 0.447214 
vn 0 -0.894427 0.447214 
vn 0 -0.894427 0.447214 
vn 0 -0.894427 0.447214 
vn 0 0 -1 
vn 0 0 -1 
vn 0 0 -1 
vn 0 0 -1 
vn 0 0 -1 
vn 0 0 -1 
g Pyramid01
usemtl Material1
f 2/2/1 1/5/2 3/1/3
f 5/2/4 1/5/5 2/1/6
f 4/2/7 1/5/8 5/1/9
f 3/2/10 1/5/11 4/1/12
f 3/2/13 5/3/14 2/1/15
f 3/2/16 4/4/17 5/3/18


